<?xml version="1.0" encoding="UTF-8" standalone="no"?>
<svg
   xmlns:dc="http://purl.org/dc/elements/1.1/"
   xmlns:cc="http://creativecommons.org/ns#"
   xmlns:rdf="http://www.w3.org/1999/02/22-rdf-syntax-ns#"
   xmlns:svg="http://www.w3.org/2000/svg"
   xmlns="http://www.w3.org/2000/svg"
   xmlns:sodipodi="http://sodipodi.sourceforge.net/DTD/sodipodi-0.dtd"
   xmlns:inkscape="http://www.inkscape.org/namespaces/inkscape"
   id="svg"
   version="1.1"
   width="400"
   height="400"
   viewBox="0, 0, 400,400"
   sodipodi:docname="logo_so_cama.svg"
   inkscape:version="0.92.4 (f8dce91, 2019-08-02)">
  <metadata
     id="metadata891">
    <rdf:RDF>
      <cc:Work
         rdf:about="">
        <dc:format>image/svg+xml</dc:format>
        <dc:type
           rdf:resource="http://purl.org/dc/dcmitype/StillImage" />
        <dc:title></dc:title>
      </cc:Work>
    </rdf:RDF>
  </metadata>
  <defs
     id="defs889" />
  <sodipodi:namedview
     pagecolor="#ffffff"
     bordercolor="#666666"
     borderopacity="1"
     objecttolerance="10"
     gridtolerance="10"
     guidetolerance="10"
     inkscape:pageopacity="0"
     inkscape:pageshadow="2"
     inkscape:window-width="1853"
     inkscape:window-height="1025"
     id="namedview887"
     showgrid="false"
     inkscape:zoom="0.53769947"
     inkscape:cx="893.35993"
     inkscape:cy="100.97673"
     inkscape:window-x="67"
     inkscape:window-y="27"
     inkscape:window-maximized="1"
     inkscape:current-layer="g918" />
  <g
     id="g918"
     transform="matrix(0.93240857,0,0,0.92455159,24.616218,33.180082)">
    <path
       style="fill:#ffffff;fill-rule:evenodd;stroke:none"
       inkscape:connector-curvature="0"
       d="m 43.767884,70.200601 c -3.134,1.91 -2.858,-7.944 -2.868,102.592999 -0.006,62.827 0.132,98.894 0.381,99.764 0.989,3.447 2.42,4.016 10.227,4.067 11.097003,0.073 10.33,2.105 10.583,-28.034 l 0.200003,-23.8 H 185.4909 308.69092 l 0.2,24.439 c 0.22,26.84 0.066,25.327 2.687,26.423 1.832,0.766 14.03,0.751 15.874,-0.02 2.87,-1.199 2.639,4.466 2.638,-64.631 0,-69.916 0.266,-64.063 -2.999,-65.898 l -1.6,-0.9 -112.35502,-0.006 -112.355,-0.007 1.406,-1.1 c 0.773,-0.605 2.958,-2.221 4.855,-3.59 6.9,-4.982 6.877,-5.757 -0.466,-15.669 -2.543,-3.432 -5.819,-7.861 -7.279003,-9.841 -1.46001,-1.98 -4.98401,-6.744 -7.83101,-10.586 -2.846,-3.843001 -5.805,-7.843001 -6.575,-8.889001 -8.078,-10.981 -8.254,-11.142 -11.521,-10.529 -1.373,0.258 -2.525,0.986 -8.378,5.3 -1.265,0.932 -2.426,1.697 -2.579,1.7 -0.153,0.002 -0.333003,-3.927 -0.400003,-8.731 l -0.122,-8.735998 -1.136,-1.638 c -1.538,-2.217 -2.598,-2.491 -9.624,-2.49 -5.351,0.002 -6.191,0.094 -7.363,0.809 M 65.641887,111.6906 c 2.962,4.088 11.877,16.192 19.286,26.184 2.4,3.237 4.363,5.982 4.363,6.1 0,0.119 -6.12,0.216 -13.6,0.216 H 62.090884 v -18.2 c 0,-10.599 0.151003,-18.2 0.362003,-18.2 0.199,0 1.634,1.755 3.189,3.9 m 159.483013,70.9 c 0.091,0 0.166,-6.396 0.166,-14.212 v -14.213 l 4.9,0.113 4.9,0.112 0.103,26.3 c 0.056,14.465 -0.05,26.3 -0.236,26.3 -0.186,0 -6.766,-6.48 -14.623,-14.4 -7.856,-7.92 -14.365,-14.4 -14.464,-14.4 -0.099,0 -0.18,6.3 -0.18,14 v 14 h -5 -5 l 0.009,-26.5 0.009,-26.5 14.625,14.7 c 8.044,8.085 14.7,14.7 14.791,14.7 M 93.206887,154.9636 c 12.040013,3.847 16.492013,17.961 8.986013,28.494 -1.236,1.735 -4.602013,4.333 -5.613013,4.333 -1.324,0 -0.471,1.65 6.514013,12.6 0.701,1.1 1.77,2.855 2.374,3.9 l 1.099,1.9 h -6.238 c -3.431013,0 -6.238013,-0.149 -6.238013,-0.331 0,-0.183 -0.516,-1.128 -1.146,-2.1 -0.631,-0.973 -3.075,-4.919 -5.432,-8.769 -2.357,-3.85 -4.541,-7.264 -4.854,-7.586 -0.491,-0.506 -0.568,0.721 -0.568,9.1 v 9.686 h -5 -5 v -26 -26 h 9.348 c 8.138,0 9.661,0.1 11.768,0.773 m 72.484013,4.42 v 5.193 l -9.7,0.107 -9.7,0.107 v 5 5 l 7.3,0.109 7.3,0.109 v 5.191 5.191 h -7.4 -7.4 v 5.2 5.2 h 9.8 9.8 v 5.2 5.2 h -14.8 -14.8 v -25.733 c 0,-14.154 0.12,-25.854 0.267,-26 0.146,-0.147 6.806,-0.267 14.8,-0.267 h 14.533 v 5.193 m 133.51202,0.107 0.112,5.1 h -6.212 -6.212 v 20.8 20.8 h -4.996 -4.997 l -0.103,-20.7 -0.104,-20.7 -6.1,-0.11 -6.1,-0.111 v -5.194 -5.193 l 17.3,0.104 17.3,0.104 0.112,5.1 m -216.935033,5.615 c -0.108,0.283 -0.148,3.568 -0.087,7.3 l 0.11,6.785 3.2,0.122 c 4.236,0.162 5.547,-0.124 7.193,-1.57 4.444,-3.901 3.29,-10.618 -2.155,-12.538 -2.194,-0.775 -7.975,-0.844 -8.261,-0.099 m -4.322,66.871 c -9.63,3.433 -5.981,19.036 4.128,17.651 1.713,-0.235 4.817,-1.893 4.817,-2.573 0,-1.261 -1.985,-2.162 -3.343,-1.518 -4.06,1.927 -8.194,-0.893 -7.771,-5.299 0.407,-4.234 3.991,-6.342 7.743,-4.553 l 1.456,0.695 0.964,-1.195 0.965,-1.194 -1.008,-0.881 c -1.892,-1.656 -5.173,-2.123 -7.951,-1.133 m 31.293013,-0.199 c -5.362,1.622 -7.64,9.117 -4.303,14.156 3.928,5.93 12.878,4.614 15.119,-2.224 2.359,-7.198 -3.844,-14.041 -10.816,-11.932 m 28.452,8.813 v 9.2 h 5.2 5.2 v -1.8 -1.8 h -3.4 -3.4 v -7.4 -7.4 h -1.8 -1.8 v 9.2 m 27.6,0 v 9.2 h 1.6 1.6 v -9.2 -9.2 h -1.6 -1.6 v 9.2 m 20.753,-7.3 c 2.446,6.198 6.405,15.407 6.793,15.801 0.163,0.165 1.261,-1.995 2.44,-4.8 1.18,-2.806 2.835,-6.743 3.679,-8.75 1.877,-4.462 1.894,-4.151 -0.216,-4.151 h -1.751 l -0.928,2.5 c -0.509,1.375 -1.416,3.58 -2.014,4.9 l -1.087,2.4 -1.16,-2.6 c -0.638,-1.43 -1.574,-3.635 -2.081,-4.9 l -0.921,-2.3 h -1.752 -1.752 l 0.75,1.9 m 31.647,7.3 v 9.2 h 1.8 1.8 v -9.2 -9.2 h -1.8 -1.8 v 9.2 m 21.149,-8.849 c -0.082,0.243 -0.097,4.403 -0.034,9.245 l 0.115,8.804 h 1.573 1.573 l 0.112,-5.055 0.112,-5.055 4.983,5.044 c 3.37402,3.415 5.08402,4.886 5.29402,4.555 0.171,-0.269 0.314,-4.404 0.317,-9.189 l 0.01,-8.7 h -1.8 -1.8 v 5.094 5.094 l -5.15102,-5.14 c -2.834,-2.827 -5.219,-4.941 -5.3,-4.697 m 36.39902,0.012 c -7.265,2.362 -7.956,13.57 -1.049,17.012 5.131,2.557 10.511,-0.046 12.08,-5.843 1.071,-3.957 0.859,-4.162 -4.138,-4.005 l -4.041,0.126 v 1.574 1.573 h 2.176 c 2.605,0 2.984,0.426 1.751,1.967 -3.235,4.041 -9.127,1.739 -9.127,-3.567 0,-4.3 3.978,-6.873 7.674,-4.962 1.204,0.623 1.262,0.61 2.402,-0.53 l 1.169,-1.168 -1.595,-1.106 c -1.73,-1.198 -5.299,-1.722 -7.302,-1.071 m -160.73202,3.845 c 2.663,1.377 3.496,5.334 1.705,8.096 -3.339,5.149 -10.896,1.466 -9.274,-4.52 0.968,-3.569 4.424,-5.202 7.569,-3.576"
       id="path914" />
  </g>
</svg>
