<svg id="svg" version="1.1" xmlns="http://www.w3.org/2000/svg" xmlns:xlink="http://www.w3.org/1999/xlink" width="400" height="400" viewBox="0, 0, 400,400"><g id="svgg"><path id="path0" d="M58.077 92.410 C 54.943 94.320,55.219 84.466,55.209 195.003 C 55.203 257.830,55.341 293.897,55.590 294.767 C 56.579 298.214,58.010 298.783,65.817 298.834 C 76.914 298.907,76.147 300.939,76.400 270.800 L 76.600 247.000 199.800 247.000 L 323.000 247.000 323.200 271.439 C 323.420 298.279,323.266 296.766,325.887 297.862 C 327.719 298.628,339.917 298.613,341.761 297.842 C 344.631 296.643,344.400 302.308,344.399 233.211 C 344.399 163.295,344.665 169.148,341.400 167.313 L 339.800 166.413 227.445 166.407 L 115.090 166.400 116.496 165.300 C 117.269 164.695,119.454 163.079,121.351 161.710 C 128.251 156.728,128.228 155.953,120.885 146.041 C 118.342 142.609,115.066 138.180,113.606 136.200 C 112.146 134.220,108.622 129.456,105.775 125.614 C 102.929 121.771,99.970 117.771,99.200 116.725 C 91.122 105.744,90.946 105.583,87.679 106.196 C 86.306 106.454,85.154 107.182,79.301 111.496 C 78.036 112.428,76.875 113.193,76.722 113.196 C 76.569 113.198,76.389 109.269,76.322 104.465 L 76.200 95.729 75.064 94.091 C 73.526 91.874,72.466 91.600,65.440 91.601 C 60.089 91.603,59.249 91.695,58.077 92.410 M79.951 133.900 C 82.913 137.988,91.828 150.092,99.237 160.084 C 101.637 163.321,103.600 166.066,103.600 166.184 C 103.600 166.303,97.480 166.400,90.000 166.400 L 76.400 166.400 76.400 148.200 C 76.400 137.601,76.551 130.000,76.762 130.000 C 76.961 130.000,78.396 131.755,79.951 133.900 M239.434 204.800 C 239.525 204.800,239.600 198.404,239.600 190.588 L 239.600 176.375 244.500 176.488 L 249.400 176.600 249.503 202.900 C 249.559 217.365,249.453 229.200,249.267 229.200 C 249.081 229.200,242.501 222.720,234.644 214.800 C 226.788 206.880,220.279 200.400,220.180 200.400 C 220.081 200.400,220.000 206.700,220.000 214.400 L 220.000 228.400 215.000 228.400 L 210.000 228.400 210.009 201.900 L 210.018 175.400 224.643 190.100 C 232.687 198.185,239.343 204.800,239.434 204.800 M107.516 177.173 C 119.556 181.020,124.008 195.134,116.502 205.667 C 115.266 207.402,111.900 210.000,110.889 210.000 C 109.565 210.000,110.418 211.650,117.403 222.600 C 118.104 223.700,119.173 225.455,119.777 226.500 L 120.876 228.400 114.638 228.400 C 111.207 228.400,108.400 228.251,108.400 228.069 C 108.400 227.886,107.884 226.941,107.254 225.969 C 106.623 224.996,104.179 221.050,101.822 217.200 C 99.465 213.350,97.281 209.936,96.968 209.614 C 96.477 209.108,96.400 210.335,96.400 218.714 L 96.400 228.400 91.400 228.400 L 86.400 228.400 86.400 202.400 L 86.400 176.400 95.748 176.400 C 103.886 176.400,105.409 176.500,107.516 177.173 M180.000 181.593 L 180.000 186.786 170.300 186.893 L 160.600 187.000 160.600 192.000 L 160.600 197.000 167.900 197.109 L 175.200 197.218 175.200 202.409 L 175.200 207.600 167.800 207.600 L 160.400 207.600 160.400 212.800 L 160.400 218.000 170.200 218.000 L 180.000 218.000 180.000 223.200 L 180.000 228.400 165.200 228.400 L 150.400 228.400 150.400 202.667 C 150.400 188.513,150.520 176.813,150.667 176.667 C 150.813 176.520,157.473 176.400,165.467 176.400 L 180.000 176.400 180.000 181.593 M313.512 181.700 L 313.624 186.800 307.412 186.800 L 301.200 186.800 301.200 207.600 L 301.200 228.400 296.204 228.400 L 291.207 228.400 291.104 207.700 L 291.000 187.000 284.900 186.890 L 278.800 186.779 278.800 181.585 L 278.800 176.392 296.100 176.496 L 313.400 176.600 313.512 181.700 M96.577 187.315 C 96.469 187.598,96.429 190.883,96.490 194.615 L 96.600 201.400 99.800 201.522 C 104.036 201.684,105.347 201.398,106.993 199.952 C 111.437 196.051,110.283 189.334,104.838 187.414 C 102.644 186.639,96.863 186.570,96.577 187.315 M92.255 254.186 C 82.625 257.619,86.274 273.222,96.383 271.837 C 98.096 271.602,101.200 269.944,101.200 269.264 C 101.200 268.003,99.215 267.102,97.857 267.746 C 93.797 269.673,89.663 266.853,90.086 262.447 C 90.493 258.213,94.077 256.105,97.829 257.894 L 99.285 258.589 100.249 257.394 L 101.214 256.200 100.206 255.319 C 98.314 253.663,95.033 253.196,92.255 254.186 M123.548 253.987 C 118.186 255.609,115.908 263.104,119.245 268.143 C 123.173 274.073,132.123 272.757,134.364 265.919 C 136.723 258.721,130.520 251.878,123.548 253.987 M152.000 262.800 L 152.000 272.000 157.200 272.000 L 162.400 272.000 162.400 270.200 L 162.400 268.400 159.000 268.400 L 155.600 268.400 155.600 261.000 L 155.600 253.600 153.800 253.600 L 152.000 253.600 152.000 262.800 M179.600 262.800 L 179.600 272.000 181.200 272.000 L 182.800 272.000 182.800 262.800 L 182.800 253.600 181.200 253.600 L 179.600 253.600 179.600 262.800 M200.353 255.500 C 202.799 261.698,206.758 270.907,207.146 271.301 C 207.309 271.466,208.407 269.306,209.586 266.501 C 210.766 263.695,212.421 259.758,213.265 257.751 C 215.142 253.289,215.159 253.600,213.049 253.600 L 211.298 253.600 210.370 256.100 C 209.861 257.475,208.954 259.680,208.356 261.000 L 207.269 263.400 206.109 260.800 C 205.471 259.370,204.535 257.165,204.028 255.900 L 203.107 253.600 201.355 253.600 L 199.603 253.600 200.353 255.500 M232.000 262.800 L 232.000 272.000 233.800 272.000 L 235.600 272.000 235.600 262.800 L 235.600 253.600 233.800 253.600 L 232.000 253.600 232.000 262.800 M253.149 253.951 C 253.067 254.194,253.052 258.354,253.115 263.196 L 253.230 272.000 254.803 272.000 L 256.376 272.000 256.488 266.945 L 256.600 261.890 261.583 266.934 C 264.957 270.349,266.667 271.820,266.877 271.489 C 267.048 271.220,267.191 267.085,267.194 262.300 L 267.200 253.600 265.400 253.600 L 263.600 253.600 263.600 258.694 L 263.600 263.788 258.449 258.648 C 255.615 255.821,253.230 253.707,253.149 253.951 M289.548 253.963 C 282.283 256.325,281.592 267.533,288.499 270.975 C 293.630 273.532,299.010 270.929,300.579 265.132 C 301.650 261.175,301.438 260.970,296.441 261.127 L 292.400 261.253 292.400 262.827 L 292.400 264.400 294.576 264.400 C 297.181 264.400,297.560 264.826,296.327 266.367 C 293.092 270.408,287.200 268.106,287.200 262.800 C 287.200 258.500,291.178 255.927,294.874 257.838 C 296.078 258.461,296.136 258.448,297.276 257.308 L 298.445 256.140 296.850 255.034 C 295.120 253.836,291.551 253.312,289.548 253.963 M128.816 257.808 C 131.479 259.185,132.312 263.142,130.521 265.904 C 127.182 271.053,119.625 267.370,121.247 261.384 C 122.215 257.815,125.671 256.182,128.816 257.808 " stroke="none" fill="#333333" fill-rule="evenodd"></path><path id="path1" d="M0.000 200.000 L 0.000 400.000 200.000 400.000 L 400.000 400.000 400.000 200.000 L 400.000 0.000 200.000 0.000 L 0.000 0.000 0.000 200.000 M219.600 19.562 C 236.306 21.406,255.791 26.203,267.078 31.250 C 268.001 31.662,268.871 32.000,269.011 32.000 C 269.542 32.000,275.233 34.607,281.354 37.654 C 301.582 47.723,320.541 62.163,335.639 79.000 C 338.484 82.173,343.477 88.121,344.556 89.622 C 349.525 96.538,353.880 103.006,356.118 106.797 C 357.612 109.328,359.002 111.670,359.206 112.000 C 359.627 112.681,366.698 126.973,367.221 128.200 C 387.066 174.760,386.883 227.359,366.714 273.400 C 351.508 308.112,322.537 340.313,290.600 358.001 C 289.280 358.733,287.660 359.631,287.000 359.998 C 252.110 379.389,204.266 386.953,167.000 378.968 C 165.460 378.638,163.210 378.179,162.000 377.947 C 159.134 377.398,151.901 375.549,147.600 374.266 C 141.903 372.568,135.717 370.303,127.400 366.871 C 116.198 362.249,98.333 351.508,87.800 343.063 C 66.119 325.679,49.728 305.488,37.580 281.200 C 34.471 274.982,33.947 273.850,32.128 269.400 C 12.508 221.411,14.148 167.712,36.654 121.200 C 38.517 117.350,40.887 112.764,41.921 111.008 C 42.954 109.253,43.980 107.499,44.200 107.112 C 57.626 83.469,81.927 59.169,107.119 44.195 C 112.042 41.269,114.323 40.027,119.600 37.400 C 150.187 22.174,185.769 15.826,219.600 19.562 M54.997 195.000 C 54.997 248.680,55.043 270.581,55.100 243.668 C 55.157 216.755,55.157 172.835,55.100 146.068 C 55.043 119.301,54.997 141.320,54.997 195.000 M229.583 209.700 C 231.241 211.466,231.600 211.784,231.600 211.483 C 231.600 211.419,230.745 210.564,229.700 209.583 L 227.800 207.800 229.583 209.700 M137.932 247.100 C 171.665 247.156,226.745 247.156,260.332 247.100 C 293.920 247.044,266.320 246.997,199.000 246.997 C 131.680 246.997,104.200 247.044,137.932 247.100 M322.097 247.052 C 322.748 247.244,322.801 248.825,322.902 270.929 L 323.009 294.600 323.005 270.805 C 323.000 247.307,322.990 247.010,322.200 246.928 C 321.584 246.865,321.560 246.893,322.097 247.052 M182.972 262.800 C 182.972 267.970,183.029 270.085,183.099 267.500 C 183.168 264.915,183.168 260.685,183.099 258.100 C 183.029 255.515,182.972 257.630,182.972 262.800 M252.970 263.200 C 252.970 267.930,253.028 269.865,253.098 267.500 C 253.169 265.135,253.169 261.265,253.098 258.900 C 253.028 256.535,252.970 258.470,252.970 263.200 M294.500 261.094 C 295.545 261.176,297.255 261.176,298.300 261.094 C 299.345 261.012,298.490 260.944,296.400 260.944 C 294.310 260.944,293.455 261.012,294.500 261.094 M62.313 299.095 C 63.476 299.176,65.276 299.176,66.313 299.093 C 67.351 299.011,66.400 298.945,64.200 298.946 C 62.000 298.947,61.151 299.014,62.313 299.095 " stroke="none" fill="#fb542c" fill-rule="evenodd"></path><path id="path2" d="M189.400 18.801 C 164.695 20.419,141.061 26.716,119.600 37.400 C 114.323 40.027,112.042 41.269,107.119 44.195 C 81.927 59.169,57.626 83.469,44.200 107.112 C 43.980 107.499,42.954 109.253,41.921 111.008 C 36.692 119.888,30.430 134.345,26.763 146.000 C 14.183 185.989,16.106 230.212,32.128 269.400 C 33.947 273.850,34.471 274.982,37.580 281.200 C 49.728 305.488,66.119 325.679,87.800 343.063 C 98.333 351.508,116.198 362.249,127.400 366.871 C 135.717 370.303,141.903 372.568,147.600 374.266 C 151.901 375.549,159.134 377.398,162.000 377.947 C 163.210 378.179,165.460 378.638,167.000 378.968 C 204.266 386.953,252.110 379.389,287.000 359.998 C 287.660 359.631,289.280 358.733,290.600 358.001 C 318.177 342.728,343.086 317.247,360.005 287.000 C 386.369 239.869,389.110 179.553,367.221 128.200 C 366.698 126.973,359.627 112.681,359.206 112.000 C 359.002 111.670,357.612 109.328,356.118 106.797 C 353.880 103.006,349.525 96.538,344.556 89.622 C 343.766 88.523,342.451 86.927,338.637 82.439 C 323.062 64.115,302.998 48.428,281.354 37.654 C 275.233 34.607,269.542 32.000,269.011 32.000 C 268.871 32.000,268.001 31.662,267.078 31.250 C 247.495 22.493,214.284 17.171,189.400 18.801 M73.178 92.301 C 75.982 93.724,76.400 95.352,76.400 104.863 C 76.400 109.448,76.535 113.199,76.700 113.198 C 76.865 113.197,77.900 112.516,79.000 111.685 C 90.542 102.962,88.511 101.836,107.000 127.206 C 108.100 128.715,112.150 134.198,116.000 139.390 C 126.165 153.098,126.400 153.454,126.399 155.145 C 126.396 157.465,125.150 158.937,119.929 162.788 L 115.032 166.400 227.422 166.400 C 353.391 166.400,341.391 166.111,343.500 169.200 L 344.400 170.518 344.400 232.970 C 344.400 302.334,344.632 296.643,341.761 297.842 C 339.851 298.640,327.716 298.626,325.796 297.824 C 322.692 296.527,322.803 297.531,322.801 270.900 L 322.800 247.200 199.600 247.200 L 76.400 247.200 76.398 270.300 C 76.395 294.728,76.337 295.555,74.503 297.285 C 71.419 300.194,59.497 300.011,56.866 297.014 C 54.707 294.555,54.782 298.443,54.895 194.000 C 55.013 84.258,54.698 94.707,57.959 92.514 C 59.799 91.277,70.855 91.122,73.178 92.301 M76.400 148.200 L 76.400 166.400 90.033 166.400 C 97.532 166.400,103.607 166.256,103.533 166.080 C 103.407 165.777,97.659 157.946,88.794 146.000 C 86.591 143.030,83.050 138.215,80.926 135.300 C 78.802 132.385,76.915 130.000,76.732 130.000 C 76.550 130.000,76.400 138.190,76.400 148.200 M210.017 201.900 L 210.000 228.400 215.000 228.400 L 220.000 228.400 220.000 214.400 C 220.000 206.700,220.142 200.400,220.315 200.400 C 220.489 200.400,226.994 206.890,234.772 214.823 C 242.719 222.927,249.066 229.094,249.260 228.900 C 249.450 228.710,249.560 216.864,249.503 202.577 L 249.400 176.600 244.500 176.488 L 239.600 176.375 239.600 190.588 C 239.600 198.404,239.469 204.800,239.308 204.800 C 239.148 204.800,232.495 198.185,224.525 190.100 L 210.034 175.400 210.017 201.900 M86.667 176.667 C 86.520 176.813,86.400 188.513,86.400 202.667 L 86.400 228.400 91.400 228.400 L 96.400 228.400 96.400 218.800 C 96.400 213.520,96.535 209.201,96.700 209.201 C 96.865 209.202,98.166 211.137,99.592 213.501 C 103.867 220.591,108.098 227.367,108.589 227.911 C 108.933 228.292,110.550 228.394,114.935 228.311 L 120.819 228.200 117.943 223.600 C 108.880 209.102,109.574 210.677,111.778 209.611 C 124.802 203.306,121.911 181.644,107.458 177.236 C 104.705 176.397,87.411 175.923,86.667 176.667 M150.667 176.667 C 150.520 176.813,150.400 188.513,150.400 202.667 L 150.400 228.400 165.200 228.400 L 180.000 228.400 180.000 223.200 L 180.000 218.000 170.200 218.000 L 160.400 218.000 160.400 212.809 L 160.400 207.618 167.700 207.509 L 175.000 207.400 175.112 202.309 L 175.224 197.218 167.912 197.109 L 160.600 197.000 160.600 192.000 L 160.600 187.000 170.300 186.893 L 180.000 186.786 180.000 181.593 L 180.000 176.400 165.467 176.400 C 157.473 176.400,150.813 176.520,150.667 176.667 M279.071 176.662 C 278.922 176.811,278.800 179.149,278.800 181.856 L 278.800 186.779 284.900 186.890 L 291.000 187.000 291.104 207.700 L 291.207 228.400 296.204 228.400 L 301.200 228.400 301.200 207.610 L 301.200 186.821 307.300 186.710 L 313.400 186.600 313.400 181.600 L 313.400 176.600 296.371 176.496 C 287.005 176.438,279.220 176.513,279.071 176.662 M105.689 187.738 C 110.857 190.034,111.081 197.896,106.059 200.719 C 104.628 201.523,103.981 201.616,100.519 201.515 L 96.600 201.400 96.491 194.100 L 96.382 186.800 99.980 186.800 C 102.887 186.800,103.982 186.980,105.689 187.738 M98.600 254.345 C 101.171 255.515,101.551 256.231,100.279 257.502 C 99.233 258.549,99.209 258.553,97.798 257.880 C 93.854 255.999,90.200 258.373,90.200 262.816 C 90.200 267.235,93.905 269.621,97.857 267.746 C 99.189 267.114,99.267 267.123,100.217 268.016 C 103.963 271.535,93.734 273.400,89.771 269.921 C 82.136 263.217,89.509 250.210,98.600 254.345 M128.911 254.024 C 133.344 255.255,136.003 260.622,134.593 265.491 C 132.978 271.069,126.350 273.770,121.823 270.693 C 113.100 264.766,118.855 251.231,128.911 254.024 M155.600 261.000 L 155.600 268.400 159.000 268.400 L 162.400 268.400 162.400 270.200 L 162.400 272.000 157.200 272.000 L 152.000 272.000 152.000 262.800 L 152.000 253.600 153.800 253.600 L 155.600 253.600 155.600 261.000 M183.200 262.800 L 183.200 272.000 181.400 272.000 L 179.600 272.000 179.600 262.800 L 179.600 253.600 181.400 253.600 L 183.200 253.600 183.200 262.800 M204.243 256.200 C 204.791 257.520,205.602 259.542,206.046 260.692 C 207.207 263.707,207.286 263.652,209.389 258.386 L 211.301 253.600 213.077 253.600 C 215.219 253.600,215.394 252.746,211.190 262.800 C 209.488 266.870,207.966 270.623,207.808 271.140 C 207.650 271.657,207.377 271.927,207.203 271.740 C 206.965 271.486,201.322 258.196,199.702 254.076 C 199.546 253.679,199.952 253.582,201.371 253.676 L 203.246 253.800 204.243 256.200 M235.600 262.800 L 235.600 272.000 233.800 272.000 L 232.000 272.000 232.000 262.800 L 232.000 253.600 233.800 253.600 L 235.600 253.600 235.600 262.800 M263.306 263.200 C 263.468 263.200,263.600 261.040,263.600 258.400 L 263.600 253.600 265.400 253.600 L 267.200 253.600 267.200 262.576 C 267.200 267.513,267.053 271.644,266.873 271.755 C 266.692 271.866,264.400 269.807,261.779 267.179 C 259.157 264.550,256.875 262.400,256.706 262.400 C 256.538 262.400,256.400 264.570,256.400 267.223 L 256.400 272.046 254.700 271.923 L 253.000 271.800 252.892 263.210 C 252.832 258.485,252.885 254.356,253.009 254.033 C 253.167 253.621,254.694 254.903,258.123 258.323 C 260.812 261.005,263.144 263.200,263.306 263.200 M294.899 254.021 C 295.724 254.250,296.855 254.834,297.412 255.319 L 298.425 256.200 297.397 257.300 C 296.235 258.542,295.737 258.629,294.624 257.787 C 292.784 256.396,289.046 257.591,287.819 259.962 C 284.881 265.646,291.671 271.245,295.903 266.628 C 297.569 264.809,297.321 264.400,294.553 264.400 L 292.354 264.400 292.477 262.700 L 292.600 261.000 296.590 261.000 C 301.432 261.000,301.783 261.385,300.613 265.424 C 297.999 274.449,285.156 273.783,283.772 264.551 C 282.703 257.427,288.254 252.175,294.899 254.021 M124.200 257.582 C 121.059 258.881,120.180 264.365,122.708 266.892 C 125.213 269.398,129.260 268.537,131.038 265.120 C 133.255 260.858,128.623 255.752,124.200 257.582 " stroke="none" fill="#fbfbfb" fill-rule="evenodd"></path></g></svg>